<svg xmlns="http://www.w3.org/2000/svg" xmlns:xlink="http://www.w3.org/1999/xlink" version="1.1" x="0px" y="0px" viewBox="0 0 90 112.5" enable-background="new 0 0 90 90" xml:space="preserve"><path d="M49.357,27.889c-1.647-0.799-3.631-0.111-4.431,1.537c-0.083,0.171-0.149,0.394-0.204,0.655  c-0.057-0.26-0.125-0.482-0.209-0.653c-0.812-1.642-2.8-2.314-4.442-1.504c-1.641,0.812-2.314,2.8-1.503,4.441  c0.811,1.643,6.181,7.045,6.181,7.045s5.344-5.442,6.143-7.09C51.692,30.671,51.004,28.687,49.357,27.889z"/><path d="M75.612,36.288c-1.481-0.718-3.005-1.249-4.541-1.611c3.607-1.813,6.09-5.538,6.09-9.851c0-6.09-4.938-11.027-11.028-11.027  c-6.091,0-11.028,4.937-11.028,11.027c0,4.293,2.457,8.004,6.038,9.826c-5.937,1.368-11.253,5.186-14.35,10.9  c-0.837,0.283-1.473,1.021-1.581,1.941l-0.286,2.439l-0.286-2.439c-0.105-0.896-0.708-1.623-1.512-1.922  c-3.207-5.817-8.717-9.639-14.822-10.883c4.272-1.989,7.236-6.318,7.236-11.343c0-6.908-5.6-12.508-12.508-12.508  s-12.509,5.6-12.509,12.508c0,5.266,3.256,9.768,7.862,11.613c-1.405,0.37-2.793,0.886-4.146,1.554  C3.395,41.876-1.053,55.018,4.307,65.865c1.471,2.979,5.214,7.828,9.868,13.297l3.437-12.449c4.077,4.881,16.083,7.141,27.388,7.141  c11.307,0,23.313-2.26,27.39-7.141l3.428,12.418c4.697-5.584,8.479-10.543,9.946-13.568C91.044,54.674,86.499,41.569,75.612,36.288z   M79.919,50.979c-0.809,1.475-1.718,2.846-2.697,4.078c-1.986,2.498-4.271,4.469-6.812,5.885c0.511,0.643,0.786,1.316,0.786,2.01  c0,4.561-11.729,8.258-26.197,8.258c-14.467,0-26.195-3.697-26.195-8.258c0-0.693,0.277-1.365,0.789-2.008  c-2.542-1.416-4.826-3.387-6.814-5.887c-0.98-1.232-1.888-2.604-2.698-4.078c-0.254-0.463-0.085-1.045,0.378-1.303  c0.464-0.254,1.047-0.084,1.303,0.379c0.757,1.379,1.604,2.66,2.518,3.809c2.439,3.066,5.349,5.262,8.648,6.525  c3.697,1.418,7.875,1.633,12.416,0.643c1.49-0.324,2.438-1.803,2.113-3.293c-0.157-0.721-0.586-1.338-1.208-1.736  c-0.622-0.4-1.362-0.533-2.084-0.375c-7.93,1.73-12.737-3.287-14.436-5.525c-1.713-2.256-2.465-4.369-2.914-5.632  c-0.064-0.18-0.123-0.345-0.178-0.492c-0.186-0.497,0.065-1.049,0.562-1.234c0.496-0.185,1.049,0.065,1.234,0.563  c0.059,0.157,0.121,0.331,0.189,0.522c0.438,1.231,1.102,3.094,2.634,5.116c1.476,1.941,5.648,6.303,12.5,4.809  c0.692-0.15,1.393-0.139,2.063,0.02l0.711-6.063c0.031-0.264,0.254-0.461,0.518-0.461h5.26c0.265,0,0.487,0.197,0.518,0.461  l0.849,7.229c0.004,0.021,0.004,0.041,0.004,0.061c0,1.938-1.386,3.557-3.219,3.922v4.785h1.511c0.432,0,0.782,0.35,0.782,0.781  s-0.35,0.781-0.782,0.781h-4.584c-0.432,0-0.781-0.35-0.781-0.781s0.35-0.781,0.781-0.781h1.511v-3.203  c-0.622,1.184-1.742,2.098-3.146,2.404c-0.034,0.008-0.067,0.012-0.102,0.02c-0.375,0.414-0.607,0.957-0.607,1.561  c0,1.295,1.05,2.346,2.345,2.346h4.584c1.296,0,2.345-1.051,2.345-2.346c0-1.277-1.022-2.311-2.292-2.34v-1.822  c1.268-0.559,2.299-1.559,2.901-2.803c0.602,1.244,1.633,2.244,2.901,2.803v1.822c-1.27,0.029-2.292,1.063-2.292,2.34  c0,1.295,1.05,2.346,2.344,2.346h4.585c1.295,0,2.346-1.051,2.346-2.346c0-0.621-0.246-1.184-0.643-1.604  c-0.598-0.143-1.14-0.396-1.613-0.732c-0.012,0-0.023-0.004-0.037-0.004v-0.021c-0.688-0.498-1.229-1.168-1.563-1.938v3.518h1.51  c0.432,0,0.783,0.35,0.783,0.781s-0.352,0.781-0.783,0.781h-4.585c-0.431,0-0.781-0.35-0.781-0.781s0.351-0.781,0.781-0.781h1.512  V58.92c-1.833-0.365-3.219-1.984-3.219-3.922c0-0.02,0.001-0.039,0.004-0.061l0.849-7.229c0.031-0.264,0.253-0.461,0.518-0.461  h5.261c0.265,0,0.486,0.197,0.518,0.461l0.716,6.096c0.713-0.191,1.466-0.213,2.208-0.053c6.85,1.492,11.024-2.867,12.5-4.809  c1.532-2.021,2.195-3.884,2.635-5.116c0.067-0.191,0.129-0.365,0.188-0.522c0.185-0.495,0.738-0.747,1.233-0.563  c0.497,0.186,0.748,0.737,0.563,1.234c-0.056,0.147-0.114,0.313-0.179,0.492c-0.448,1.263-1.201,3.376-2.913,5.632  c-1.699,2.236-6.506,7.25-14.437,5.525c-0.722-0.16-1.461-0.025-2.083,0.375c-0.622,0.398-1.051,1.016-1.208,1.736  c-0.325,1.49,0.623,2.967,2.113,3.293c4.541,0.99,8.718,0.775,12.415-0.643c3.3-1.264,6.209-3.459,8.648-6.525  c0.912-1.148,1.761-2.43,2.519-3.809c0.255-0.463,0.839-0.633,1.303-0.379C80.006,49.934,80.175,50.516,79.919,50.979z"/><path d="M37.647,52.021l-0.357,3.041c0,1.27,1.03,2.301,2.3,2.301c1.27,0,2.3-1.031,2.3-2.301l-0.357-3.041H37.647z"/><path d="M48.14,52.021l-0.357,3.041c0,1.27,1.03,2.301,2.3,2.301c1.271,0,2.301-1.031,2.301-2.301l-0.357-3.041H48.14z"/><text x="0" y="105" fill="#000000" font-size="5px" font-weight="bold" font-family="'Helvetica Neue', Helvetica, Arial-Unicode, Arial, Sans-serif">Created by Yazmin Alanis</text><text x="0" y="110" fill="#000000" font-size="5px" font-weight="bold" font-family="'Helvetica Neue', Helvetica, Arial-Unicode, Arial, Sans-serif">from the Noun Project</text></svg>