<svg xmlns:dc="http://purl.org/dc/elements/1.1/" xmlns:cc="http://creativecommons.org/ns#" xmlns:rdf="http://www.w3.org/1999/02/22-rdf-syntax-ns#" xmlns:svg="http://www.w3.org/2000/svg" xmlns="http://www.w3.org/2000/svg" xmlns:sodipodi="http://sodipodi.sourceforge.net/DTD/sodipodi-0.dtd" xmlns:inkscape="http://www.inkscape.org/namespaces/inkscape" viewBox="0 0 32 40.00000125" version="1.1" x="0px" y="0px"><g transform="translate(0,-1020.3622)"><g transform="translate(1140.1297,17.55146)"><g><g transform="translate(-282.2455,-0.38488735)"><g transform="translate(-93.904403,-0.29562567)"><g transform="translate(423.1674,-46.439881)"><g transform="translate(-90.505962,-29.624286)"><g transform="translate(-144.27632,29.5498)"><g transform="translate(47.171924,-46.850913)"><g transform="translate(-0.464039,4.7117965e-8)"><g><g transform="matrix(0.8660254,-0.5,0.5,0.8660254,-892.30067,-226.03598)"><g transform="translate(-11.155229,3.0642311)"><path d="m -740.06761,1095.4902 c -0.43495,-0.2512 -0.95055,-0.2796 -1.44497,-0.1848 -0.49442,0.095 -0.99404,0.309 -1.49103,0.5826 -0.99392,0.547 -1.9516,1.3663 -2.54096,2.2135 -0.57666,0.8288 -0.92995,1.8017 -0.83792,2.7639 0.0772,0.8076 0.52497,1.5793 1.31209,2.1648 l -2.85935,4.9526 c -0.10253,0 -0.19779,0 -0.29465,0.01 -0.26768,0.041 -0.56123,0.1596 -0.74243,0.4735 -1.3995,2.424 -2.74943,4.1371 -4.30188,6.826 -0.21315,0.3692 -0.16833,0.754 -0.0514,1.089 0.11385,0.326 0.31697,0.6423 0.63586,0.8362 0.009,0.01 0.0181,0.01 0.027,0.016 0.31687,0.1714 0.67356,0.2046 0.9994,0.144 0.33524,-0.062 0.6827,-0.245 0.8903,-0.6046 1.3244,-2.2939 2.58735,-4.9814 3.8304,-7.1344 0.1812,-0.3138 0.13715,-0.6274 0.0388,-0.8797 -0.0409,-0.1044 -0.0904,-0.2077 -0.14982,-0.303 l 2.8594,-4.9526 c 0.92584,0.4105 1.77032,0.468 2.46835,0.1622 0.72618,-0.318 1.20565,-0.9498 1.6236,-1.6246 0.64007,-1.0613 1.01496,-2.4197 1.05473,-3.5769 0.0112,-0.6139 -0.0376,-1.2183 -0.18999,-1.7334 -0.15248,-0.5151 -0.38288,-0.9738 -0.83557,-1.2403 z m 18.96015,13.4725 c -0.21285,-0.044 -0.44848,0.068 -0.54769,0.2612 l -2.82815,4.8985 c -0.17557,-0.1661 -0.30133,-0.355 -0.38921,-0.5134 -0.16872,-0.3045 -0.15817,-0.5386 -0.0862,-0.6633 l 1.79685,-3.1122 c 0.15072,-0.2271 0.0689,-0.5743 -0.16736,-0.7101 -0.2358,-0.1367 -0.57741,-0.034 -0.69867,0.2101 l -1.79685,3.1122 c -0.2925,0.5067 -0.18195,1.1403 0.0973,1.6439 0.17723,0.3197 0.43304,0.6317 0.74407,0.8988 l -2.7031,4.6819 c -0.0849,0 -0.16608,-0.014 -0.25195,0 -0.26761,0.041 -0.56132,0.1597 -0.74247,0.4735 -1.39955,2.4241 -2.74948,4.1372 -4.30188,6.826 -0.2131,0.3691 -0.1839,0.781 -0.067,1.1161 0.11696,0.3349 0.31666,0.6158 0.65146,0.8091 0.32339,0.1874 0.69125,0.2218 1.02646,0.1596 0.33527,-0.062 0.6671,-0.2179 0.8747,-0.5775 1.3245,-2.2941 2.60295,-5.0084 3.846,-7.1615 0.18115,-0.3137 0.13725,-0.6275 0.0388,-0.8797 -0.0441,-0.1121 -0.11718,-0.1928 -0.19253,-0.2915 l 2.6719,-4.6279 c 0.50924,0.2467 0.9797,0.3542 1.42514,0.2816 0.51853,-0.084 0.96866,-0.4278 1.21316,-0.8513 l 1.79685,-3.1122 c 0.13557,-0.2268 0.0493,-0.5571 -0.17946,-0.6892 -0.22879,-0.1321 -0.5577,-0.042 -0.68656,0.1892 l -1.79685,3.1122 c -0.12,0.2079 -0.2743,0.3257 -0.49776,0.3622 -0.18156,0.03 -0.44791,0.022 -0.79017,-0.1314 l 2.8594,-4.9526 c 0.17562,-0.2716 -0.002,-0.6955 -0.31833,-0.7612 z m -11.252,-3.5734 c -3.53278,-2.0397 -8.06795,-0.8384 -10.1015,2.6838 -2.0336,3.5223 -0.80628,8.0504 2.7265,10.09 3.53278,2.0397 8.0679,0.8385 10.1015,-2.6838 2.03355,-3.5222 0.80628,-8.0504 -2.7265,-10.09 z m -3.54177,3.2595 c 0.52191,0.3013 0.78274,0.7637 0.94802,1.233 0.49234,-0.091 1.02,-0.097 1.54181,0.2045 0.55767,0.3219 0.98708,0.8059 1.17598,1.4006 0.18889,0.5947 0.13112,1.2729 -0.24113,1.9177 -0.4359,0.755 -1.29771,1.0674 -2.21895,1.2808 -0.92123,0.2134 -1.97664,0.3349 -2.95583,0.4946 -0.22244,0.034 -0.45942,-0.1029 -0.54127,-0.3125 -0.35177,-0.9291 -0.77666,-1.9022 -1.04953,-2.8071 -0.27287,-0.9049 -0.43325,-1.8121 -2.5e-4,-2.5621 0.36915,-0.6394 0.93115,-1.0321 1.54017,-1.1676 0.60903,-0.1356 1.24129,-0.01 1.80098,0.3181 z" style="color:#000000;text-indent:0;text-decoration-line:none;text-transform:none;direction:ltr;block-progression:tb;baseline-shift:baseline;enable-background:accumulate;" display="inline" overflow="visible" visibility="visible" fill="#000000" fill-opacity="1" stroke="none" marker="none"/></g></g></g></g></g></g></g></g></g></g></g></g></g><text x="0" y="47.000001" fill="#000000" font-size="5px" font-weight="bold" font-family="'Helvetica Neue', Helvetica, Arial-Unicode, Arial, Sans-serif">Created by Chameleon Design</text><text x="0" y="52.000001" fill="#000000" font-size="5px" font-weight="bold" font-family="'Helvetica Neue', Helvetica, Arial-Unicode, Arial, Sans-serif">from the Noun Project</text></svg>