<svg xmlns:dc="http://purl.org/dc/elements/1.1/" xmlns:cc="http://creativecommons.org/ns#" xmlns:rdf="http://www.w3.org/1999/02/22-rdf-syntax-ns#" xmlns:svg="http://www.w3.org/2000/svg" xmlns="http://www.w3.org/2000/svg" xmlns:sodipodi="http://sodipodi.sourceforge.net/DTD/sodipodi-0.dtd" xmlns:inkscape="http://www.inkscape.org/namespaces/inkscape" viewBox="0 0 32 40" version="1.1" x="0px" y="0px"><g transform="translate(0,-1020.3622)"><path style="color:#000000;font-style:normal;font-variant:normal;font-weight:normal;font-stretch:normal;font-size:medium;line-height:normal;font-family:sans-serif;text-indent:0;text-align:start;text-decoration:none;text-decoration-line:none;text-decoration-style:solid;text-decoration-color:#000000;letter-spacing:normal;word-spacing:normal;text-transform:none;direction:ltr;block-progression:tb;writing-mode:lr-tb;baseline-shift:baseline;text-anchor:start;white-space:normal;clip-rule:nonzero;display:inline;overflow:visible;visibility:visible;opacity:1;isolation:auto;mix-blend-mode:normal;color-interpolation:sRGB;color-interpolation-filters:linearRGB;solid-color:#000000;solid-opacity:1;fill:#000000;fill-opacity:1;fill-rule:nonzero;stroke:none;stroke-width:0.99999994;stroke-linecap:round;stroke-linejoin:round;stroke-miterlimit:4;stroke-dasharray:none;stroke-dashoffset:0;stroke-opacity:1;color-rendering:auto;image-rendering:auto;shape-rendering:auto;text-rendering:auto;enable-background:accumulate" d="m 25.46046,1030.4581 a 0.50002484,0.50003435 0 0 0 -0.134759,0.018 l -8.692923,2.328 a 0.50002484,0.50003435 0 0 0 -0.353497,0.6133 l 1.876859,7.0036 c 0.579908,2.6947 3.246459,4.4162 5.941107,3.8398 a 0.50002484,0.50003435 0 0 0 0.0293,-0.01 c 2.781187,-0.7454 4.440345,-3.6172 3.695127,-6.3984 l -1.882719,-7.027 a 0.50002484,0.50003435 0 0 0 -0.478491,-0.3711 z m -0.359357,1.1112 1.753818,6.5447 c 0.604168,2.2548 -0.72329,4.5571 -2.97446,5.1678 -2.1642,0.459 -4.280073,-0.9077 -4.745855,-3.0722 a 0.50002484,0.50003435 0 0 0 -0.0059,-0.025 l -1.753818,-6.5426 7.726174,-2.0723 z m -1.017527,12.6931 -0.08594,0.01 a 0.50002484,0.50003435 0 0 0 0.08594,-0.01 z"/><path style="color:#000000;font-style:normal;font-variant:normal;font-weight:normal;font-stretch:normal;font-size:medium;line-height:normal;font-family:sans-serif;text-indent:0;text-align:start;text-decoration:none;text-decoration-line:none;text-decoration-style:solid;text-decoration-color:#000000;letter-spacing:normal;word-spacing:normal;text-transform:none;direction:ltr;block-progression:tb;writing-mode:lr-tb;baseline-shift:baseline;text-anchor:start;white-space:normal;clip-rule:nonzero;display:inline;overflow:visible;visibility:visible;opacity:1;isolation:auto;mix-blend-mode:normal;color-interpolation:sRGB;color-interpolation-filters:linearRGB;solid-color:#000000;solid-opacity:1;fill:#000000;fill-opacity:1;fill-rule:evenodd;stroke:none;stroke-width:0.99999994px;stroke-linecap:butt;stroke-linejoin:miter;stroke-miterlimit:4;stroke-dasharray:none;stroke-dashoffset:0;stroke-opacity:1;color-rendering:auto;image-rendering:auto;shape-rendering:auto;text-rendering:auto;enable-background:accumulate" d="m 26.890076,1036.1278 -8.81401,1.9843 0.218739,0.9746 8.81401,-1.9844 -0.218739,-0.9745 z"/><path style="color:#000000;font-style:normal;font-variant:normal;font-weight:normal;font-stretch:normal;font-size:medium;line-height:normal;font-family:sans-serif;text-indent:0;text-align:start;text-decoration:none;text-decoration-line:none;text-decoration-style:solid;text-decoration-color:#000000;letter-spacing:normal;word-spacing:normal;text-transform:none;direction:ltr;block-progression:tb;writing-mode:lr-tb;baseline-shift:baseline;text-anchor:start;white-space:normal;clip-rule:nonzero;display:inline;overflow:visible;visibility:visible;opacity:1;isolation:auto;mix-blend-mode:normal;color-interpolation:sRGB;color-interpolation-filters:linearRGB;solid-color:#000000;solid-opacity:1;fill:#000000;fill-opacity:1;fill-rule:evenodd;stroke:none;stroke-width:0.99999994px;stroke-linecap:butt;stroke-linejoin:miter;stroke-miterlimit:4;stroke-dasharray:none;stroke-dashoffset:0;stroke-opacity:1;color-rendering:auto;image-rendering:auto;shape-rendering:auto;text-rendering:auto;enable-background:accumulate" d="m 24.696827,1043.5845 -0.964796,0.2578 1.810456,6.7617 0.966749,-0.2598 -1.812409,-6.7597 z"/><path style="color:#000000;font-style:normal;font-variant:normal;font-weight:normal;font-stretch:normal;font-size:medium;line-height:normal;font-family:sans-serif;text-indent:0;text-align:start;text-decoration:none;text-decoration-line:none;text-decoration-style:solid;text-decoration-color:#000000;letter-spacing:normal;word-spacing:normal;text-transform:none;direction:ltr;block-progression:tb;writing-mode:lr-tb;baseline-shift:baseline;text-anchor:start;white-space:normal;clip-rule:nonzero;display:inline;overflow:visible;visibility:visible;opacity:1;isolation:auto;mix-blend-mode:normal;color-interpolation:sRGB;color-interpolation-filters:linearRGB;solid-color:#000000;solid-opacity:1;fill:#000000;fill-opacity:1;fill-rule:evenodd;stroke:none;stroke-width:0.99999994px;stroke-linecap:round;stroke-linejoin:round;stroke-miterlimit:4;stroke-dasharray:none;stroke-dashoffset:0;stroke-opacity:1;color-rendering:auto;image-rendering:auto;shape-rendering:auto;text-rendering:auto;enable-background:accumulate" d="m 27.477937,1049.5843 a 0.50002484,0.50003435 0 0 0 -0.132806,0.02 l -2.898292,0.7755 a 0.50051958,0.5005291 0 0 0 0.259752,0.9667 l 2.898293,-0.7773 a 0.50002484,0.50003435 0 0 0 -0.126947,-0.9845 z"/><path style="color:#000000;font-style:normal;font-variant:normal;font-weight:normal;font-stretch:normal;font-size:medium;line-height:normal;font-family:sans-serif;text-indent:0;text-align:start;text-decoration:none;text-decoration-line:none;text-decoration-style:solid;text-decoration-color:#000000;letter-spacing:normal;word-spacing:normal;text-transform:none;direction:ltr;block-progression:tb;writing-mode:lr-tb;baseline-shift:baseline;text-anchor:start;white-space:normal;clip-rule:nonzero;display:inline;overflow:visible;visibility:visible;opacity:1;isolation:auto;mix-blend-mode:normal;color-interpolation:sRGB;color-interpolation-filters:linearRGB;solid-color:#000000;solid-opacity:1;fill:#000000;fill-opacity:1;fill-rule:nonzero;stroke:none;stroke-width:0.99999994;stroke-linecap:round;stroke-linejoin:round;stroke-miterlimit:4;stroke-dasharray:none;stroke-dashoffset:0;stroke-opacity:1;color-rendering:auto;image-rendering:auto;shape-rendering:auto;text-rendering:auto;enable-background:accumulate" d="m 6.5258652,1030.4581 a 0.50002484,0.50003435 0 0 0 -0.4648204,0.3711 l -1.8827179,7.027 c -0.7452189,2.7812 0.9139397,5.653 3.6951268,6.3984 a 0.50002484,0.50003435 0 0 0 0.023436,0.01 c 0.00199,4e-4 0.00387,-4e-4 0.00586,0 2.6946473,0.5764 5.3611983,-1.1451 5.9411063,-3.8398 l 1.876859,-7.0036 a 0.50002484,0.50003435 0 0 0 -0.353497,-0.6133 l -8.6929223,-2.328 a 0.50002484,0.50003435 0 0 0 -0.14843,-0.018 z m 0.3730281,1.1112 7.7261737,2.0723 -1.753818,6.5426 a 0.50002484,0.50003435 0 0 0 -0.0059,0.025 c -0.465781,2.1645 -2.581654,3.5312 -4.7458539,3.0722 -2.2511697,-0.6107 -3.5786281,-2.913 -2.9744599,-5.1678 l 1.7538181,-6.5447 z m 1.0233861,12.695 a 0.50002484,0.50003435 0 0 0 0.080074,0.01 l -0.080074,-0.01 z"/><path style="color:#000000;font-style:normal;font-variant:normal;font-weight:normal;font-stretch:normal;font-size:medium;line-height:normal;font-family:sans-serif;text-indent:0;text-align:start;text-decoration:none;text-decoration-line:none;text-decoration-style:solid;text-decoration-color:#000000;letter-spacing:normal;word-spacing:normal;text-transform:none;direction:ltr;block-progression:tb;writing-mode:lr-tb;baseline-shift:baseline;text-anchor:start;white-space:normal;clip-rule:nonzero;display:inline;overflow:visible;visibility:visible;opacity:1;isolation:auto;mix-blend-mode:normal;color-interpolation:sRGB;color-interpolation-filters:linearRGB;solid-color:#000000;solid-opacity:1;fill:#000000;fill-opacity:1;fill-rule:evenodd;stroke:none;stroke-width:0.99999994px;stroke-linecap:butt;stroke-linejoin:miter;stroke-miterlimit:4;stroke-dasharray:none;stroke-dashoffset:0;stroke-opacity:1;color-rendering:auto;image-rendering:auto;shape-rendering:auto;text-rendering:auto;enable-background:accumulate" d="m 5.13531,1035.6337 -0.2695176,0.9629 8.8120566,2.4842 0.271471,-0.9629 -8.81401,-2.4842 z"/><path style="color:#000000;font-style:normal;font-variant:normal;font-weight:normal;font-stretch:normal;font-size:medium;line-height:normal;font-family:sans-serif;text-indent:0;text-align:start;text-decoration:none;text-decoration-line:none;text-decoration-style:solid;text-decoration-color:#000000;letter-spacing:normal;word-spacing:normal;text-transform:none;direction:ltr;block-progression:tb;writing-mode:lr-tb;baseline-shift:baseline;text-anchor:start;white-space:normal;clip-rule:nonzero;display:inline;overflow:visible;visibility:visible;opacity:1;isolation:auto;mix-blend-mode:normal;color-interpolation:sRGB;color-interpolation-filters:linearRGB;solid-color:#000000;solid-opacity:1;fill:#000000;fill-opacity:1;fill-rule:evenodd;stroke:none;stroke-width:0.99999994px;stroke-linecap:butt;stroke-linejoin:miter;stroke-miterlimit:4;stroke-dasharray:none;stroke-dashoffset:0;stroke-opacity:1;color-rendering:auto;image-rendering:auto;shape-rendering:auto;text-rendering:auto;enable-background:accumulate" d="m 7.3031699,1043.5845 -1.8124089,6.7597 0.9667482,0.2598 1.8104559,-6.7617 -0.9647952,-0.2578 z"/><path style="color:#000000;font-style:normal;font-variant:normal;font-weight:normal;font-stretch:normal;font-size:medium;line-height:normal;font-family:sans-serif;text-indent:0;text-align:start;text-decoration:none;text-decoration-line:none;text-decoration-style:solid;text-decoration-color:#000000;letter-spacing:normal;word-spacing:normal;text-transform:none;direction:ltr;block-progression:tb;writing-mode:lr-tb;baseline-shift:baseline;text-anchor:start;white-space:normal;clip-rule:nonzero;display:inline;overflow:visible;visibility:visible;opacity:1;isolation:auto;mix-blend-mode:normal;color-interpolation:sRGB;color-interpolation-filters:linearRGB;solid-color:#000000;solid-opacity:1;fill:#000000;fill-opacity:1;fill-rule:evenodd;stroke:none;stroke-width:0.99999994px;stroke-linecap:round;stroke-linejoin:round;stroke-miterlimit:4;stroke-dasharray:none;stroke-dashoffset:0;stroke-opacity:1;color-rendering:auto;image-rendering:auto;shape-rendering:auto;text-rendering:auto;enable-background:accumulate" d="m 4.5064354,1049.5843 a 0.50002484,0.50003435 0 0 0 -0.1113226,0.9845 l 2.898292,0.7773 a 0.50051965,0.50052916 0 0 0 0.2597525,-0.9667 l -2.8982918,-0.7755 a 0.50002484,0.50003435 0 0 0 -0.1484301,-0.02 z"/><path style="color:#000000;font-style:normal;font-variant:normal;font-weight:normal;font-stretch:normal;font-size:medium;line-height:normal;font-family:sans-serif;text-indent:0;text-align:start;text-decoration:none;text-decoration-line:none;text-decoration-style:solid;text-decoration-color:#000000;letter-spacing:normal;word-spacing:normal;text-transform:none;direction:ltr;block-progression:tb;writing-mode:lr-tb;baseline-shift:baseline;text-anchor:start;white-space:normal;clip-rule:nonzero;display:inline;overflow:visible;visibility:visible;opacity:1;isolation:auto;mix-blend-mode:normal;color-interpolation:sRGB;color-interpolation-filters:linearRGB;solid-color:#000000;solid-opacity:1;fill:#000000;fill-opacity:1;fill-rule:nonzero;stroke:none;stroke-width:0.99999994;stroke-linecap:butt;stroke-linejoin:miter;stroke-miterlimit:4;stroke-dasharray:none;stroke-dashoffset:0;stroke-opacity:1;color-rendering:auto;image-rendering:auto;shape-rendering:auto;text-rendering:auto;enable-background:accumulate" d="m 20.997794,1021.8645 c -0.719579,7e-4 -1.186253,0.3144 -1.499925,0.584 -0.313664,-0.2692 -0.779803,-0.5807 -1.497972,-0.5801 -1.084745,0 -2.000931,0.8529 -2.001852,1.9238 l 0,0 c 5.11e-4,0.4838 0.198437,0.9328 0.511693,1.2793 0.881456,0.9766 2.646351,2.6543 2.646351,2.6543 l 0.351545,0.3339 0.343732,-0.3417 c 0,0 1.646849,-1.6323 2.499875,-2.5195 l -0.002,0 c 0.342384,-0.3538 0.647525,-0.8281 0.648405,-1.4121 0.0011,-1.071 -0.91311,-1.9247 -1.997946,-1.9238 l -0.002,0 z m 0.002,0 0.08397,0.01 -0.04297,-0.01 -0.04102,0 z m 0,1 c 0.571956,-5e-4 0.998506,0.4203 0.997996,0.9218 -3.47e-4,0.231 -0.128221,0.472 -0.367169,0.7189 l 0,0 c -0.715007,0.7436 -1.77507,1.7946 -2.132705,2.1502 -0.36828,-0.353 -1.540883,-1.4703 -2.247934,-2.2537 -0.165709,-0.1834 -0.251713,-0.3968 -0.25194,-0.6114 0.0015,-0.5006 0.430816,-0.9232 1.001902,-0.9238 0.527176,-4e-4 1.124944,0.58 1.124944,0.58 l 0.373028,0.416 0.373028,-0.416 c 0,0 0.601795,-0.5834 1.12885,-0.5839 z"/><path style="color:#000000;font-style:normal;font-variant:normal;font-weight:normal;font-stretch:normal;font-size:medium;line-height:normal;font-family:sans-serif;text-indent:0;text-align:start;text-decoration:none;text-decoration-line:none;text-decoration-style:solid;text-decoration-color:#000000;letter-spacing:normal;word-spacing:normal;text-transform:none;direction:ltr;block-progression:tb;writing-mode:lr-tb;baseline-shift:baseline;text-anchor:start;white-space:normal;clip-rule:nonzero;display:inline;overflow:visible;visibility:visible;opacity:1;isolation:auto;mix-blend-mode:normal;color-interpolation:sRGB;color-interpolation-filters:linearRGB;solid-color:#000000;solid-opacity:1;fill:#000000;fill-opacity:1;fill-rule:nonzero;stroke:none;stroke-width:0.99999994;stroke-linecap:butt;stroke-linejoin:miter;stroke-miterlimit:4;stroke-dasharray:none;stroke-dashoffset:0;stroke-opacity:1;color-rendering:auto;image-rendering:auto;shape-rendering:auto;text-rendering:auto;enable-background:accumulate" d="m 13.998146,1025.3644 0.109369,0.012 -0.05469,-0.012 -0.05469,0 z m 0,0 c -0.422908,4e-4 -0.76365,0.1621 -0.99995,0.3223 -0.236178,-0.1601 -0.577018,-0.3206 -0.99995,-0.3203 -0.797007,8e-4 -1.499202,0.6076 -1.499925,1.4061 l 0,0 c 4.93e-4,0.3631 0.155318,0.6966 0.390606,0.9454 0.578608,0.6121 1.751865,1.785 1.751865,1.785 l 0.36131,0.3594 0.353498,-0.3653 c 0,0 1.104804,-1.1477 1.656167,-1.6951 0.245906,-0.2432 0.48559,-0.5888 0.486303,-1.0333 8.01e-4,-0.7986 -0.702825,-1.4069 -1.499924,-1.4062 z m 0,0.9999 0.002,0 c 0.307383,-3e-4 0.498225,0.2038 0.498022,0.4063 -1.19e-4,0.074 -0.04827,0.1827 -0.189443,0.3223 l -0.002,0 c -0.449325,0.4463 -1.000235,1.0206 -1.312434,1.3437 -0.323638,-0.3249 -0.939171,-0.939 -1.378838,-1.4042 -0.08362,-0.088 -0.11666,-0.1769 -0.117181,-0.2579 1.83e-4,-0.2022 0.194588,-0.4079 0.501928,-0.4082 0.263326,-2e-4 0.63278,0.3203 0.63278,0.3203 l 0.365217,0.3907 0.365215,-0.3907 c 0,0 0.371484,-0.322 0.634735,-0.3223 z"/></g><text x="0" y="47" fill="#000000" font-size="5px" font-weight="bold" font-family="'Helvetica Neue', Helvetica, Arial-Unicode, Arial, Sans-serif">Created by anbileru adaleru</text><text x="0" y="52" fill="#000000" font-size="5px" font-weight="bold" font-family="'Helvetica Neue', Helvetica, Arial-Unicode, Arial, Sans-serif">from the Noun Project</text></svg>